<svg width="334" height="83" viewBox="0 0 334 83" fill="none" xmlns="http://www.w3.org/2000/svg">
<g filter="url(#filter0_d_93_22)">
<rect x="5.37553" y="29.5415" width="323.249" height="44.0169" rx="12.3797" stroke="#9887EF" stroke-width="2.75105"/>
<path d="M13.7828 4.51983H15.5544V18H13.7828V11.9339H7.23524V18H5.4443V4.51983H7.23524V10.2393H13.7828V4.51983ZM26.3926 16.7868C25.404 17.7625 24.2037 18.2503 22.7914 18.2503C21.3792 18.2503 20.1789 17.7625 19.1903 16.7868C18.2146 15.8111 17.7268 14.6107 17.7268 13.1857C17.7268 11.7606 18.2146 10.5602 19.1903 9.58452C20.1789 8.60882 21.3792 8.12096 22.7914 8.12096C24.2037 8.12096 25.404 8.60882 26.3926 9.58452C27.3811 10.5602 27.8754 11.7606 27.8754 13.1857C27.8754 14.6107 27.3811 15.8111 26.3926 16.7868ZM22.7914 16.6135C23.7543 16.6135 24.5631 16.2861 25.2179 15.6313C25.8726 14.9766 26.2 14.1614 26.2 13.1857C26.2 12.2099 25.8726 11.3947 25.2179 10.74C24.5631 10.0852 23.7543 9.75784 22.7914 9.75784C21.8414 9.75784 21.039 10.0852 20.3843 10.74C19.7295 11.3947 19.4021 12.2099 19.4021 13.1857C19.4021 14.1614 19.7295 14.9766 20.3843 15.6313C21.039 16.2861 21.8414 16.6135 22.7914 16.6135ZM39.4792 8.37131V18H37.8423V11.0096L34.7804 15.9395H34.5685L31.5066 11.0096V18H29.8505V8.37131H31.6414L34.6648 13.2434L37.6882 8.37131H39.4792ZM43.2115 13.9559C43.3784 14.8161 43.77 15.4837 44.3862 15.9587C45.0153 16.4337 45.7856 16.6712 46.6971 16.6712C47.9681 16.6712 48.8924 16.2026 49.4701 15.2655L50.8952 16.0743C49.958 17.525 48.5458 18.2503 46.6586 18.2503C45.1308 18.2503 43.8855 17.7753 42.9226 16.8253C41.9726 15.8624 41.4976 14.6492 41.4976 13.1857C41.4976 11.7349 41.9662 10.5281 42.9034 9.56527C43.8406 8.6024 45.0538 8.12096 46.543 8.12096C47.9552 8.12096 49.1043 8.62165 49.9901 9.62304C50.8888 10.6116 51.3381 11.8055 51.3381 13.2049C51.3381 13.4488 51.3189 13.6992 51.2803 13.9559H43.2115ZM46.543 9.70007C45.6443 9.70007 44.8997 9.95683 44.3092 10.4704C43.7186 10.9711 43.3527 11.6451 43.2115 12.4924H49.6435C49.5022 11.5809 49.1428 10.8876 48.565 10.4126C47.9873 9.93758 47.3133 9.70007 46.543 9.70007ZM58.579 8.12096C59.9271 8.12096 61.0761 8.61523 62.0261 9.60378C62.9761 10.5795 63.4512 11.7734 63.4512 13.1857C63.4512 14.5979 62.9761 15.7982 62.0261 16.7868C61.0761 17.7625 59.9271 18.2503 58.579 18.2503C56.9871 18.2503 55.7739 17.6149 54.9394 16.3439V21.8515H53.264V8.37131H54.9394V10.0274C55.7739 8.75646 56.9871 8.12096 58.579 8.12096ZM58.3672 16.6327C59.3301 16.6327 60.1389 16.3054 60.7936 15.6506C61.4484 14.983 61.7758 14.1614 61.7758 13.1857C61.7758 12.2099 61.4484 11.3947 60.7936 10.74C60.1389 10.0724 59.3301 9.73858 58.3672 9.73858C57.3915 9.73858 56.5763 10.0724 55.9215 10.74C55.2668 11.3947 54.9394 12.2099 54.9394 13.1857C54.9394 14.1614 55.2668 14.983 55.9215 15.6506C56.5763 16.3054 57.3915 16.6327 58.3672 16.6327ZM77.4284 8.37131V9.98893H74.1546V18H72.4793V9.98893H69.1862V8.37131H77.4284ZM79.6952 13.9559C79.8621 14.8161 80.2537 15.4837 80.8699 15.9587C81.499 16.4337 82.2693 16.6712 83.1808 16.6712C84.4518 16.6712 85.3761 16.2026 85.9539 15.2655L87.3789 16.0743C86.4417 17.525 85.0295 18.2503 83.1423 18.2503C81.6145 18.2503 80.3692 17.7753 79.4063 16.8253C78.4563 15.8624 77.9813 14.6492 77.9813 13.1857C77.9813 11.7349 78.4499 10.5281 79.3871 9.56527C80.3243 8.6024 81.5375 8.12096 83.0267 8.12096C84.4389 8.12096 85.588 8.62165 86.4738 9.62304C87.3725 10.6116 87.8218 11.8055 87.8218 13.2049C87.8218 13.4488 87.8026 13.6992 87.7641 13.9559H79.6952ZM83.0267 9.70007C82.1281 9.70007 81.3834 9.95683 80.7929 10.4704C80.2023 10.9711 79.8364 11.6451 79.6952 12.4924H86.1272C85.986 11.5809 85.6265 10.8876 85.0488 10.4126C84.471 9.93758 83.797 9.70007 83.0267 9.70007ZM97.4019 8.37131V18H95.7265V9.98893H91.9328V13.9174C91.9328 15.4965 91.6119 16.6006 90.97 17.2297C90.3409 17.8459 89.4486 18.1027 88.2932 18V16.4209C88.9479 16.5108 89.4358 16.3695 89.7567 15.9972C90.0905 15.6121 90.2574 14.906 90.2574 13.8789V8.37131H97.4019ZM101.115 13.9559C101.282 14.8161 101.674 15.4837 102.29 15.9587C102.919 16.4337 103.689 16.6712 104.601 16.6712C105.872 16.6712 106.796 16.2026 107.374 15.2655L108.799 16.0743C107.862 17.525 106.45 18.2503 104.562 18.2503C103.035 18.2503 101.789 17.7753 100.826 16.8253C99.8764 15.8624 99.4014 14.6492 99.4014 13.1857C99.4014 11.7349 99.87 10.5281 100.807 9.56527C101.744 8.6024 102.958 8.12096 104.447 8.12096C105.859 8.12096 107.008 8.62165 107.894 9.62304C108.793 10.6116 109.242 11.8055 109.242 13.2049C109.242 13.4488 109.223 13.6992 109.184 13.9559H101.115ZM104.447 9.70007C103.548 9.70007 102.804 9.95683 102.213 10.4704C101.622 10.9711 101.257 11.6451 101.115 12.4924H107.547C107.406 11.5809 107.047 10.8876 106.469 10.4126C105.891 9.93758 105.217 9.70007 104.447 9.70007ZM120.816 9.81561C121.715 10.74 122.164 11.8633 122.164 13.1857C122.164 14.508 121.715 15.6313 120.816 16.5557C119.918 17.4801 118.717 18.0257 117.215 18.1926V21.8515H115.559V18.1926C114.057 18.0257 112.856 17.4801 111.958 16.5557C111.059 15.6313 110.61 14.508 110.61 13.1857C110.61 11.8633 111.059 10.74 111.958 9.81561C112.856 8.89126 114.057 8.34563 115.559 8.17873V4.51983H117.215V8.17873C118.717 8.34563 119.918 8.89126 120.816 9.81561ZM112.266 13.1857C112.266 14.0715 112.555 14.8225 113.132 15.4388C113.723 16.055 114.532 16.4337 115.559 16.575V9.79635C114.532 9.92474 113.723 10.297 113.132 10.9133C112.555 11.5295 112.266 12.287 112.266 13.1857ZM117.215 16.575C118.242 16.4337 119.045 16.055 119.622 15.4388C120.2 14.8225 120.489 14.0715 120.489 13.1857C120.489 12.2998 120.2 11.5488 119.622 10.9325C119.045 10.3163 118.242 9.93758 117.215 9.79635V16.575ZM132.271 16.7868C131.282 17.7625 130.082 18.2503 128.669 18.2503C127.257 18.2503 126.057 17.7625 125.068 16.7868C124.093 15.8111 123.605 14.6107 123.605 13.1857C123.605 11.7606 124.093 10.5602 125.068 9.58452C126.057 8.60882 127.257 8.12096 128.669 8.12096C130.082 8.12096 131.282 8.60882 132.271 9.58452C133.259 10.5602 133.753 11.7606 133.753 13.1857C133.753 14.6107 133.259 15.8111 132.271 16.7868ZM128.669 16.6135C129.632 16.6135 130.441 16.2861 131.096 15.6313C131.751 14.9766 132.078 14.1614 132.078 13.1857C132.078 12.2099 131.751 11.3947 131.096 10.74C130.441 10.0852 129.632 9.75784 128.669 9.75784C127.719 9.75784 126.917 10.0852 126.262 10.74C125.608 11.3947 125.28 12.2099 125.28 13.1857C125.28 14.1614 125.608 14.9766 126.262 15.6313C126.917 16.2861 127.719 16.6135 128.669 16.6135ZM142.392 8.37131H144.067V18H142.392V13.9752H137.404V18H135.728V8.37131H137.404V12.3768H142.392V8.37131ZM154.59 8.37131H156.265V18H154.59V16.3439C153.755 17.6149 152.542 18.2503 150.95 18.2503C149.602 18.2503 148.453 17.7625 147.503 16.7868C146.553 15.7982 146.078 14.5979 146.078 13.1857C146.078 11.7734 146.553 10.5795 147.503 9.60378C148.453 8.61523 149.602 8.12096 150.95 8.12096C152.542 8.12096 153.755 8.75646 154.59 10.0274V8.37131ZM151.162 16.6327C152.138 16.6327 152.953 16.3054 153.608 15.6506C154.262 14.983 154.59 14.1614 154.59 13.1857C154.59 12.2099 154.262 11.3947 153.608 10.74C152.953 10.0724 152.138 9.73858 151.162 9.73858C150.199 9.73858 149.39 10.0724 148.735 10.74C148.081 11.3947 147.753 12.2099 147.753 13.1857C147.753 14.1614 148.081 14.983 148.735 15.6506C149.39 16.3054 150.199 16.6327 151.162 16.6327Z" fill="#F7F9F9"/>
</g>
<defs>
<filter id="filter0_d_93_22" x="0" y="4.51978" width="334" height="78.4141" filterUnits="userSpaceOnUse" color-interpolation-filters="sRGB">
<feFlood flood-opacity="0" result="BackgroundImageFix"/>
<feColorMatrix in="SourceAlpha" type="matrix" values="0 0 0 0 0 0 0 0 0 0 0 0 0 0 0 0 0 0 127 0" result="hardAlpha"/>
<feOffset dy="4"/>
<feGaussianBlur stdDeviation="2"/>
<feComposite in2="hardAlpha" operator="out"/>
<feColorMatrix type="matrix" values="0 0 0 0 0 0 0 0 0 0 0 0 0 0 0 0 0 0 0.25 0"/>
<feBlend mode="normal" in2="BackgroundImageFix" result="effect1_dropShadow_93_22"/>
<feBlend mode="normal" in="SourceGraphic" in2="effect1_dropShadow_93_22" result="shape"/>
</filter>
</defs>
</svg>
