<svg width="326" height="75" viewBox="0 0 326 75" fill="none" xmlns="http://www.w3.org/2000/svg">
<rect x="1.37553" y="28.9241" width="323.249" height="44.0169" rx="12.3797" stroke="#9887EF" stroke-width="2.75105"/>
<path d="M11.2271 4.55792V18.0381H9.43612V6.25257H3.23524V18.0381H1.4443V4.55792H11.2271ZM21.9188 8.40939H23.5942V18.0381H21.9188V16.382C21.0843 17.6529 19.8711 18.2884 18.2792 18.2884C16.9312 18.2884 15.7821 17.8006 14.8321 16.8249C13.8821 15.8363 13.4071 14.6359 13.4071 13.2237C13.4071 11.8115 13.8821 10.6176 14.8321 9.64187C15.7821 8.65332 16.9312 8.15905 18.2792 8.15905C19.8711 8.15905 21.0843 8.79454 21.9188 10.0655V8.40939ZM18.491 16.6708C19.4667 16.6708 20.2819 16.3434 20.9367 15.6887C21.5914 15.0211 21.9188 14.1994 21.9188 13.2237C21.9188 12.248 21.5914 11.4328 20.9367 10.7781C20.2819 10.1105 19.4667 9.77667 18.491 9.77667C17.5281 9.77667 16.7193 10.1105 16.0646 10.7781C15.4098 11.4328 15.0824 12.248 15.0824 13.2237C15.0824 14.1994 15.4098 15.0211 16.0646 15.6887C16.7193 16.3434 17.5281 16.6708 18.491 16.6708ZM31.4476 8.15905C32.7956 8.15905 33.9447 8.65332 34.8947 9.64187C35.8447 10.6176 36.3197 11.8115 36.3197 13.2237C36.3197 14.6359 35.8447 15.8363 34.8947 16.8249C33.9447 17.8006 32.7956 18.2884 31.4476 18.2884C29.8557 18.2884 28.6425 17.6529 27.808 16.382V21.8896H26.1326V8.40939H27.808V10.0655C28.6425 8.79454 29.8557 8.15905 31.4476 8.15905ZM31.2358 16.6708C32.1986 16.6708 33.0075 16.3434 33.6622 15.6887C34.317 15.0211 34.6443 14.1994 34.6443 13.2237C34.6443 12.248 34.317 11.4328 33.6622 10.7781C33.0075 10.1105 32.1986 9.77667 31.2358 9.77667C30.2601 9.77667 29.4448 10.1105 28.7901 10.7781C28.1353 11.4328 27.808 12.248 27.808 13.2237C27.808 14.1994 28.1353 15.0211 28.7901 15.6887C29.4448 16.3434 30.2601 16.6708 31.2358 16.6708ZM46.4455 16.8249C45.457 17.8006 44.2566 18.2884 42.8444 18.2884C41.4322 18.2884 40.2318 17.8006 39.2432 16.8249C38.2675 15.8492 37.7797 14.6488 37.7797 13.2237C37.7797 11.7987 38.2675 10.5983 39.2432 9.62261C40.2318 8.6469 41.4322 8.15905 42.8444 8.15905C44.2566 8.15905 45.457 8.6469 46.4455 9.62261C47.434 10.5983 47.9283 11.7987 47.9283 13.2237C47.9283 14.6488 47.434 15.8492 46.4455 16.8249ZM42.8444 16.6516C43.8072 16.6516 44.616 16.3242 45.2708 15.6694C45.9256 15.0147 46.2529 14.1994 46.2529 13.2237C46.2529 12.248 45.9256 11.4328 45.2708 10.7781C44.616 10.1233 43.8072 9.79593 42.8444 9.79593C41.8943 9.79593 41.0919 10.1233 40.4372 10.7781C39.7824 11.4328 39.4551 12.248 39.4551 13.2237C39.4551 14.1994 39.7824 15.0147 40.4372 15.6694C41.0919 16.3242 41.8943 16.6516 42.8444 16.6516ZM57.5952 8.40939V18.0381H55.9198V10.027H52.1261V13.9555C52.1261 15.5346 51.8052 16.6387 51.1633 17.2678C50.5342 17.884 49.6419 18.1408 48.4865 18.0381V16.459C49.1412 16.5488 49.6291 16.4076 49.95 16.0353C50.2838 15.6502 50.4507 14.9441 50.4507 13.917V8.40939H57.5952ZM64.1972 11.8757C65.1601 11.8757 65.956 12.1646 66.5851 12.7423C67.227 13.3072 67.548 14.0454 67.548 14.9569C67.548 15.8684 67.227 16.613 66.5851 17.1908C65.956 17.7556 65.1601 18.0381 64.1972 18.0381H60.1339V8.40939H61.8093V11.8757H64.1972ZM64.1972 16.4782C64.6722 16.4782 65.0702 16.3434 65.3912 16.0738C65.7249 15.7914 65.8918 15.4191 65.8918 14.9569C65.8918 14.4947 65.7249 14.1224 65.3912 13.84C65.0702 13.5575 64.6722 13.4163 64.1972 13.4163H61.8093V16.4782H64.1972Z" fill="#F7F9F9"/>
</svg>
