<svg width="39" height="45" viewBox="0 0 39 45" fill="none" xmlns="http://www.w3.org/2000/svg">
<path d="M36.2211 10.2396C37.6134 11.0435 38.4711 12.5291 38.4711 14.1368V30.8632C38.4711 32.4709 37.6134 33.9565 36.2211 34.7604L21.7356 43.1236C20.3433 43.9275 18.6279 43.9275 17.2356 43.1236L2.75 34.7604C1.3577 33.9565 0.5 32.4709 0.5 30.8632V14.1368C0.5 12.5291 1.3577 11.0435 2.75 10.2396L17.2356 1.87639C18.6279 1.07254 20.3433 1.07254 21.7356 1.87639L36.2211 10.2396ZM19.2606 33.35C25.1286 33.35 29.8856 28.593 29.8856 22.725C29.8856 16.857 25.1286 12.1 19.2606 12.1C13.3925 12.1 8.63557 16.857 8.63557 22.725C8.63557 28.593 13.3925 33.35 19.2606 33.35Z" stroke="#F7F9F9"/>
</svg>
