<svg width="49" height="104" viewBox="0 0 49 104" fill="none" xmlns="http://www.w3.org/2000/svg">
<path d="M30.8161 14.1433C30.8161 20.3117 26.9594 25.4916 21.2675 27.0048C20.173 27.2958 19.0231 27.4509 17.837 27.4509C15.6954 27.4509 13.6719 26.9453 11.8793 26.047C7.51595 23.8606 4.18348 19.3561 4.18348 14.1433C4.18348 6.78894 10.1454 0.827026 17.4998 0.827026C24.8542 0.827026 30.8161 6.78894 30.8161 14.1433Z" fill="#9887EF"/>
<path d="M14.3748 73.4593L9.66509 73.2724C8.82818 73.2392 8.03792 73.0545 7.31712 72.7474L5.84895 81.8146C5.80402 82.1751 5.72966 82.5312 5.62664 82.8795L1.09752 98.191C0.467021 100.323 1.8068 102.534 3.98793 102.963C5.90707 103.34 7.79606 102.188 8.33918 100.309L12.1681 87.0626C12.2602 86.7441 12.3284 86.4191 12.372 86.0903L14.3748 73.4593Z" fill="#9887EF"/>
<path d="M20.6666 73.7312L14.3748 73.4593L19.883 100.147C20.3005 102.126 22.2302 103.402 24.2148 103.013C26.2629 102.61 27.5726 100.594 27.1075 98.5592L21.3473 73.7274L21.0095 73.7362C20.8959 73.7374 20.7816 73.7358 20.6666 73.7312Z" fill="#9887EF"/>
<path d="M32.7833 36.2632C31.7154 36.9789 30.4805 37.4063 29.1986 37.504L22.9586 37.9795L21.7651 38.0704C21.5037 38.0904 21.5886 38.1267 21.3473 38.1945L22.5698 45.7359C22.6086 45.7341 22.3103 45.7405 22.3493 45.7375L24.1935 45.597L30.8322 45.0911C32.4804 44.9655 34.0681 44.416 35.4412 43.4958L42.3293 38.8797C43.6842 37.9717 44.2954 36.2911 43.8403 34.7249C43.1334 32.2923 40.2652 31.2492 38.1609 32.6595L32.7833 36.2632Z" fill="#9887EF"/>
<path d="M9.93404 29.3151L2.26281 65.3107C1.65901 68.3224 4.32064 71.2037 6.84663 72.5246C6.99985 72.6047 7.15677 72.6791 7.31712 72.7474C8.03792 73.0545 8.82818 73.2392 9.66509 73.2724L14.3748 73.4593L19.883 100.147C20.3005 102.126 22.2302 103.402 24.2148 103.013C26.2629 102.61 27.5726 100.594 27.1075 98.5592L21.3473 73.7274C25.3882 73.6847 28.4953 70.0457 27.8402 66.0041L22.5698 45.7359L21.3473 38.1945L21.7755 28.5917C21.6837 28.0257 21.5097 27.4933 21.2675 27.0048C20.173 27.2958 19.0231 27.4509 17.837 27.4509C15.6954 27.4509 13.6719 26.9453 11.8793 26.047C11.3539 26.718 10.1092 28.4415 9.93404 29.3151Z" fill="#9887EF"/>
<path d="M24.1935 45.597L22.3493 45.7375C22.3103 45.7405 22.6086 45.7341 22.5698 45.7359L27.8402 66.0041L24.1935 45.597Z" fill="#9887EF"/>
<path d="M21.7651 38.0704L22.9586 37.9795L21.7755 28.5917L21.3473 38.1945C21.5886 38.1267 21.5037 38.0904 21.7651 38.0704Z" fill="#9887EF"/>
<path d="M43.6022 27.726H39.9185C39.028 27.726 38.1965 28.171 37.7025 28.9119L33.7964 34.7711C32.6165 36.541 33.8852 38.9117 36.0124 38.9117H39.8356C40.7418 38.9117 41.5858 38.4509 42.0758 37.6886L45.8425 31.8294C46.9819 30.057 45.7093 27.726 43.6022 27.726Z" fill="#7765E3"/>
<path d="M11.5942 46.4256L12.0904 55.9629C12.1734 57.5585 13.4914 58.8097 15.0892 58.8097C16.8089 58.8097 18.1773 57.3683 18.088 55.6509L17.608 46.4256L18.088 37.2003C18.1773 35.4829 16.8089 34.0414 15.0892 34.0414C13.4914 34.0414 12.1734 35.2926 12.0904 36.8882L11.5942 46.4256Z" stroke="#7765E3" stroke-width="0.464873"/>
</svg>
