<svg width="153" height="32" viewBox="0 0 153 32" fill="none" xmlns="http://www.w3.org/2000/svg">
<path d="M41.096 2.73647H42.2V11.1365H41.096V7.35647H37.016V11.1365H35.9V2.73647H37.016V6.30047H41.096V2.73647ZM44.6217 8.61647C44.7257 9.15247 44.9697 9.56847 45.3537 9.86447C45.7457 10.1605 46.2257 10.3085 46.7937 10.3085C47.5857 10.3085 48.1617 10.0165 48.5217 9.43247L49.4097 9.93647C48.8257 10.8405 47.9457 11.2925 46.7697 11.2925C45.8177 11.2925 45.0417 10.9965 44.4417 10.4045C43.8497 9.80447 43.5537 9.04847 43.5537 8.13647C43.5537 7.23247 43.8457 6.48047 44.4297 5.88047C45.0137 5.28047 45.7697 4.98047 46.6977 4.98047C47.5777 4.98047 48.2937 5.29247 48.8457 5.91647C49.4057 6.53247 49.6857 7.27647 49.6857 8.14847C49.6857 8.30047 49.6737 8.45647 49.6497 8.61647H44.6217ZM46.6977 5.96447C46.1377 5.96447 45.6737 6.12447 45.3057 6.44447C44.9377 6.75647 44.7097 7.17647 44.6217 7.70447H48.6297C48.5417 7.13647 48.3177 6.70447 47.9577 6.40847C47.5977 6.11247 47.1777 5.96447 46.6977 5.96447ZM55.1154 5.13647V6.14447H53.0754V11.1365H52.0314V6.14447H49.9794V5.13647H55.1154ZM63.9983 5.13647H65.0423V11.1365H63.9983V10.1045C63.4783 10.8965 62.7223 11.2925 61.7303 11.2925C60.8903 11.2925 60.1743 10.9885 59.5823 10.3805C58.9903 9.76447 58.6943 9.01647 58.6943 8.13647C58.6943 7.25647 58.9903 6.51247 59.5823 5.90447C60.1743 5.28847 60.8903 4.98047 61.7303 4.98047C62.7223 4.98047 63.4783 5.37647 63.9983 6.16847V5.13647ZM61.8623 10.2845C62.4703 10.2845 62.9783 10.0805 63.3863 9.67247C63.7943 9.25647 63.9983 8.74447 63.9983 8.13647C63.9983 7.52847 63.7943 7.02047 63.3863 6.61247C62.9783 6.19647 62.4703 5.98847 61.8623 5.98847C61.2623 5.98847 60.7583 6.19647 60.3503 6.61247C59.9423 7.02047 59.7383 7.52847 59.7383 8.13647C59.7383 8.74447 59.9423 9.25647 60.3503 9.67247C60.7583 10.0805 61.2623 10.2845 61.8623 10.2845ZM71.7 11.1365H70.404L67.668 8.29247V11.1365H66.624V5.13647H67.668V7.78847L70.26 5.13647H71.604L68.736 8.04047L71.7 11.1365ZM77.7469 11.1365H76.4509L73.7149 8.29247V11.1365H72.6709V5.13647H73.7149V7.78847L76.3069 5.13647H77.6509L74.7829 8.04047L77.7469 11.1365ZM83.135 5.13647H84.179V11.1365H83.135V10.1045C82.615 10.8965 81.859 11.2925 80.867 11.2925C80.027 11.2925 79.311 10.9885 78.719 10.3805C78.127 9.76447 77.831 9.01647 77.831 8.13647C77.831 7.25647 78.127 6.51247 78.719 5.90447C79.311 5.28847 80.027 4.98047 80.867 4.98047C81.859 4.98047 82.615 5.37647 83.135 6.16847V5.13647ZM80.999 10.2845C81.607 10.2845 82.115 10.0805 82.523 9.67247C82.931 9.25647 83.135 8.74447 83.135 8.13647C83.135 7.52847 82.931 7.02047 82.523 6.61247C82.115 6.19647 81.607 5.98847 80.999 5.98847C80.399 5.98847 79.895 6.19647 79.487 6.61247C79.079 7.02047 78.875 7.52847 78.875 8.13647C78.875 8.74447 79.079 9.25647 79.487 9.67247C79.895 10.0805 80.399 10.2845 80.999 10.2845ZM89.9488 5.13647H91.0648L88.6168 11.5085C88.3608 12.1885 88.0008 12.7045 87.5368 13.0565C87.0728 13.4165 86.5448 13.5765 85.9528 13.5365V12.5645C86.6888 12.6205 87.2288 12.2205 87.5728 11.3645L87.6688 11.1485L85.0648 5.13647H86.1688L88.2208 9.84047L89.9488 5.13647ZM96.0885 5.13647H97.1325V11.1365H96.0885V8.62847H92.9805V11.1365H91.9365V5.13647H92.9805V7.63247H96.0885V5.13647ZM103.186 5.13647V6.14447H101.146V11.1365H100.102V6.14447H98.0497V5.13647H103.186ZM108.834 5.13647H109.878V11.1365H108.834V10.1045C108.314 10.8965 107.558 11.2925 106.566 11.2925C105.726 11.2925 105.01 10.9885 104.418 10.3805C103.826 9.76447 103.53 9.01647 103.53 8.13647C103.53 7.25647 103.826 6.51247 104.418 5.90447C105.01 5.28847 105.726 4.98047 106.566 4.98047C107.558 4.98047 108.314 5.37647 108.834 6.16847V5.13647ZM106.698 10.2845C107.306 10.2845 107.814 10.0805 108.222 9.67247C108.63 9.25647 108.834 8.74447 108.834 8.13647C108.834 7.52847 108.63 7.02047 108.222 6.61247C107.814 6.19647 107.306 5.98847 106.698 5.98847C106.098 5.98847 105.594 6.19647 105.186 6.61247C104.778 7.02047 104.574 7.52847 104.574 8.13647C104.574 8.74447 104.778 9.25647 105.186 9.67247C105.594 10.0805 106.098 10.2845 106.698 10.2845ZM113.093 8.67647C113.093 8.32447 113.169 7.99647 113.321 7.69247C113.473 7.38847 113.657 7.12847 113.873 6.91247C114.089 6.69647 114.305 6.49247 114.521 6.30047C114.737 6.10047 114.921 5.88447 115.073 5.65247C115.225 5.41247 115.301 5.16047 115.301 4.89647C115.301 4.49647 115.161 4.19247 114.881 3.98447C114.609 3.76847 114.253 3.66047 113.813 3.66047C112.933 3.66047 112.369 4.04847 112.121 4.82447L111.173 4.29647C111.373 3.73647 111.713 3.31247 112.193 3.02447C112.673 2.72847 113.217 2.58047 113.825 2.58047C114.537 2.58047 115.145 2.78047 115.649 3.18047C116.161 3.58047 116.417 4.13647 116.417 4.84847C116.417 5.18447 116.341 5.50047 116.189 5.79647C116.037 6.09247 115.853 6.34847 115.637 6.56447C115.421 6.78047 115.205 6.99247 114.989 7.20047C114.773 7.40047 114.589 7.62847 114.437 7.88447C114.285 8.13247 114.209 8.39647 114.209 8.67647H113.093ZM113.645 11.2685C113.429 11.2685 113.245 11.1925 113.093 11.0405C112.941 10.8885 112.865 10.7045 112.865 10.4885C112.865 10.2725 112.941 10.0885 113.093 9.93647C113.245 9.78447 113.429 9.70847 113.645 9.70847C113.869 9.70847 114.053 9.78447 114.197 9.93647C114.349 10.0885 114.425 10.2725 114.425 10.4885C114.425 10.7045 114.349 10.8885 114.197 11.0405C114.053 11.1925 113.869 11.2685 113.645 11.2685Z" fill="#F7F9F9"/>
<path d="M6.54 22.0849C7.54 22.6149 8.04 23.4449 8.04 24.5749C8.04 25.5149 7.685 26.2749 6.975 26.8549C6.265 27.4349 5.35 27.7249 4.23 27.7249C2.28 27.7249 0.975 26.8999 0.315 25.2499L2.1 24.2449C2.42 25.2649 3.13 25.7749 4.23 25.7749C4.8 25.7749 5.235 25.6549 5.535 25.4149C5.835 25.1749 5.985 24.8499 5.985 24.4399C5.985 24.0299 5.835 23.7049 5.535 23.4649C5.245 23.2249 4.825 23.1049 4.275 23.1049H2.97V21.2599H3.96C4.48 21.2599 4.885 21.1499 5.175 20.9299C5.465 20.6999 5.61 20.3899 5.61 19.9999C5.61 19.6099 5.485 19.3049 5.235 19.0849C4.985 18.8549 4.615 18.7399 4.125 18.7399C3.225 18.7399 2.595 19.1799 2.235 20.0599L0.48 19.0399C1.19 17.5499 2.405 16.8049 4.125 16.8049C5.165 16.8049 6.015 17.0849 6.675 17.6449C7.335 18.2049 7.665 18.9449 7.665 19.8649C7.665 20.8049 7.29 21.5449 6.54 22.0849ZM14.9932 20.0149H16.9282V27.5149H14.9932V26.6299C14.4132 27.3599 13.5982 27.7249 12.5482 27.7249C11.5482 27.7249 10.6882 27.3449 9.9682 26.5849C9.2582 25.8149 8.9032 24.8749 8.9032 23.7649C8.9032 22.6549 9.2582 21.7199 9.9682 20.9599C10.6882 20.1899 11.5482 19.8049 12.5482 19.8049C13.5982 19.8049 14.4132 20.1699 14.9932 20.8999V20.0149ZM11.4232 25.2949C11.8132 25.6849 12.3082 25.8799 12.9082 25.8799C13.5082 25.8799 14.0032 25.6849 14.3932 25.2949C14.7932 24.8949 14.9932 24.3849 14.9932 23.7649C14.9932 23.1449 14.7932 22.6399 14.3932 22.2499C14.0032 21.8499 13.5082 21.6499 12.9082 21.6499C12.3082 21.6499 11.8132 21.8499 11.4232 22.2499C11.0332 22.6399 10.8382 23.1449 10.8382 23.7649C10.8382 24.3849 11.0332 24.8949 11.4232 25.2949ZM23.0479 19.8049C24.0579 19.8049 24.9179 20.1899 25.6279 20.9599C26.3479 21.7199 26.7079 22.6549 26.7079 23.7649C26.7079 24.8749 26.3479 25.8149 25.6279 26.5849C24.9179 27.3449 24.0579 27.7249 23.0479 27.7249C21.9979 27.7249 21.1879 27.3599 20.6179 26.6299V30.5149H18.6829V20.0149H20.6179V20.8999C21.1879 20.1699 21.9979 19.8049 23.0479 19.8049ZM21.2029 25.2949C21.5929 25.6849 22.0879 25.8799 22.6879 25.8799C23.2879 25.8799 23.7829 25.6849 24.1729 25.2949C24.5729 24.8949 24.7729 24.3849 24.7729 23.7649C24.7729 23.1449 24.5729 22.6399 24.1729 22.2499C23.7829 21.8499 23.2879 21.6499 22.6879 21.6499C22.0879 21.6499 21.5929 21.8499 21.2029 22.2499C20.8129 22.6399 20.6179 23.1449 20.6179 23.7649C20.6179 24.3849 20.8129 24.8949 21.2029 25.2949ZM29.7075 24.5599C29.9675 25.4999 30.6725 25.9699 31.8225 25.9699C32.5625 25.9699 33.1225 25.7199 33.5025 25.2199L35.0625 26.1199C34.3225 27.1899 33.2325 27.7249 31.7925 27.7249C30.5525 27.7249 29.5575 27.3499 28.8075 26.5999C28.0575 25.8499 27.6825 24.9049 27.6825 23.7649C27.6825 22.6349 28.0525 21.6949 28.7925 20.9449C29.5325 20.1849 30.4825 19.8049 31.6425 19.8049C32.7425 19.8049 33.6475 20.1849 34.3575 20.9449C35.0775 21.7049 35.4375 22.6449 35.4375 23.7649C35.4375 24.0149 35.4125 24.2799 35.3625 24.5599H29.7075ZM29.6775 23.0599H33.5025C33.3925 22.5499 33.1625 22.1699 32.8125 21.9199C32.4725 21.6699 32.0825 21.5449 31.6425 21.5449C31.1225 21.5449 30.6925 21.6799 30.3525 21.9499C30.0125 22.2099 29.7875 22.5799 29.6775 23.0599ZM41.9183 20.0149V21.8749H38.7233V27.5149H36.7883V20.0149H41.9183ZM48.3703 20.0149H49.8103V27.5149H47.9203V23.2549L44.3953 27.5149H42.9553V20.0149H44.8453V24.2749L48.3703 20.0149ZM55.1532 27.7249C54.0232 27.7249 53.0782 27.3449 52.3182 26.5849C51.5682 25.8249 51.1932 24.8849 51.1932 23.7649C51.1932 22.6449 51.5682 21.7049 52.3182 20.9449C53.0782 20.1849 54.0232 19.8049 55.1532 19.8049C55.8832 19.8049 56.5482 19.9799 57.1482 20.3299C57.7482 20.6799 58.2032 21.1499 58.5132 21.7399L56.8482 22.7149C56.6982 22.4049 56.4682 22.1599 56.1582 21.9799C55.8582 21.7999 55.5182 21.7099 55.1382 21.7099C54.5582 21.7099 54.0782 21.9049 53.6982 22.2949C53.3182 22.6749 53.1282 23.1649 53.1282 23.7649C53.1282 24.3549 53.3182 24.8449 53.6982 25.2349C54.0782 25.6149 54.5582 25.8049 55.1382 25.8049C55.5282 25.8049 55.8732 25.7199 56.1732 25.5499C56.4832 25.3699 56.7132 25.1249 56.8632 24.8149L58.5432 25.7749C58.2132 26.3649 57.7482 26.8399 57.1482 27.1999C56.5482 27.5499 55.8832 27.7249 55.1532 27.7249ZM65.4327 20.0149V21.8749H63.0927V27.5149H61.1577V21.8749H58.7877V20.0149H65.4327ZM70.8311 19.8049C71.8411 19.8049 72.7011 20.1899 73.4111 20.9599C74.1311 21.7199 74.4911 22.6549 74.4911 23.7649C74.4911 24.8749 74.1311 25.8149 73.4111 26.5849C72.7011 27.3449 71.8411 27.7249 70.8311 27.7249C69.7811 27.7249 68.9711 27.3599 68.4011 26.6299V30.5149H66.4661V20.0149H68.4011V20.8999C68.9711 20.1699 69.7811 19.8049 70.8311 19.8049ZM68.9861 25.2949C69.3761 25.6849 69.8711 25.8799 70.4711 25.8799C71.0711 25.8799 71.5661 25.6849 71.9561 25.2949C72.3561 24.8949 72.5561 24.3849 72.5561 23.7649C72.5561 23.1449 72.3561 22.6399 71.9561 22.2499C71.5661 21.8499 71.0711 21.6499 70.4711 21.6499C69.8711 21.6499 69.3761 21.8499 68.9861 22.2499C68.5961 22.6399 68.4011 23.1449 68.4011 23.7649C68.4011 24.3849 68.5961 24.8949 68.9861 25.2949ZM81.2707 20.0149H82.7107V27.5149H80.8207V23.2549L77.2957 27.5149H75.8557V20.0149H77.7457V24.2749L81.2707 20.0149ZM88.8486 19.8049C89.8586 19.8049 90.7186 20.1899 91.4286 20.9599C92.1486 21.7199 92.5086 22.6549 92.5086 23.7649C92.5086 24.8749 92.1486 25.8149 91.4286 26.5849C90.7186 27.3449 89.8586 27.7249 88.8486 27.7249C87.7986 27.7249 86.9886 27.3599 86.4186 26.6299V30.5149H84.4836V20.0149H86.4186V20.8999C86.9886 20.1699 87.7986 19.8049 88.8486 19.8049ZM87.0036 25.2949C87.3936 25.6849 87.8886 25.8799 88.4886 25.8799C89.0886 25.8799 89.5836 25.6849 89.9736 25.2949C90.3736 24.8949 90.5736 24.3849 90.5736 23.7649C90.5736 23.1449 90.3736 22.6399 89.9736 22.2499C89.5836 21.8499 89.0886 21.6499 88.4886 21.6499C87.8886 21.6499 87.3936 21.8499 87.0036 22.2499C86.6136 22.6399 86.4186 23.1449 86.4186 23.7649C86.4186 24.3849 86.6136 24.8949 87.0036 25.2949ZM100.263 26.5849C99.4933 27.3449 98.5533 27.7249 97.4433 27.7249C96.3333 27.7249 95.3933 27.3449 94.6233 26.5849C93.8633 25.8149 93.4833 24.8749 93.4833 23.7649C93.4833 22.6549 93.8633 21.7199 94.6233 20.9599C95.3933 20.1899 96.3333 19.8049 97.4433 19.8049C98.5533 19.8049 99.4933 20.1899 100.263 20.9599C101.033 21.7199 101.418 22.6549 101.418 23.7649C101.418 24.8749 101.033 25.8149 100.263 26.5849ZM95.9883 25.2499C96.3783 25.6399 96.8633 25.8349 97.4433 25.8349C98.0233 25.8349 98.5083 25.6399 98.8983 25.2499C99.2883 24.8599 99.4833 24.3649 99.4833 23.7649C99.4833 23.1649 99.2883 22.6699 98.8983 22.2799C98.5083 21.8899 98.0233 21.6949 97.4433 21.6949C96.8633 21.6949 96.3783 21.8899 95.9883 22.2799C95.6083 22.6699 95.4183 23.1649 95.4183 23.7649C95.4183 24.3649 95.6083 24.8599 95.9883 25.2499ZM108.18 23.6749C108.88 24.0149 109.23 24.5849 109.23 25.3849C109.23 26.0149 109.01 26.5299 108.57 26.9299C108.14 27.3199 107.525 27.5149 106.725 27.5149H102.78V20.0149H106.425C107.215 20.0149 107.825 20.2099 108.255 20.5999C108.695 20.9899 108.915 21.4999 108.915 22.1299C108.915 22.7899 108.67 23.3049 108.18 23.6749ZM106.245 21.6049H104.595V22.9549H106.245C106.795 22.9549 107.07 22.7299 107.07 22.2799C107.07 21.8299 106.795 21.6049 106.245 21.6049ZM106.5 25.8799C107.06 25.8799 107.34 25.6399 107.34 25.1599C107.34 24.9499 107.265 24.7849 107.115 24.6649C106.965 24.5449 106.76 24.4849 106.5 24.4849H104.595V25.8799H106.5ZM116.141 20.0149H118.076V27.5149H116.141V26.6299C115.561 27.3599 114.746 27.7249 113.696 27.7249C112.696 27.7249 111.836 27.3449 111.116 26.5849C110.406 25.8149 110.051 24.8749 110.051 23.7649C110.051 22.6549 110.406 21.7199 111.116 20.9599C111.836 20.1899 112.696 19.8049 113.696 19.8049C114.746 19.8049 115.561 20.1699 116.141 20.8999V20.0149ZM112.571 25.2949C112.961 25.6849 113.456 25.8799 114.056 25.8799C114.656 25.8799 115.151 25.6849 115.541 25.2949C115.941 24.8949 116.141 24.3849 116.141 23.7649C116.141 23.1449 115.941 22.6399 115.541 22.2499C115.151 21.8499 114.656 21.6499 114.056 21.6499C113.456 21.6499 112.961 21.8499 112.571 22.2499C112.181 22.6399 111.986 23.1449 111.986 23.7649C111.986 24.3849 112.181 24.8949 112.571 25.2949ZM125.74 20.0149V21.8749H123.4V27.5149H121.465V21.8749H119.095V20.0149H125.74ZM130.164 22.4149C131.014 22.4149 131.699 22.6499 132.219 23.1199C132.739 23.5799 132.999 24.1949 132.999 24.9649C132.999 25.7349 132.739 26.3549 132.219 26.8249C131.699 27.2849 131.014 27.5149 130.164 27.5149H126.774V20.0149H128.709V22.4149H130.164ZM130.179 25.8049C130.449 25.8049 130.669 25.7299 130.839 25.5799C131.019 25.4199 131.109 25.2149 131.109 24.9649C131.109 24.7149 131.019 24.5099 130.839 24.3499C130.669 24.1899 130.449 24.1099 130.179 24.1099H128.709V25.8049H130.179ZM137.712 27.7249C136.582 27.7249 135.637 27.3449 134.877 26.5849C134.127 25.8249 133.752 24.8849 133.752 23.7649C133.752 22.6449 134.127 21.7049 134.877 20.9449C135.637 20.1849 136.582 19.8049 137.712 19.8049C138.442 19.8049 139.107 19.9799 139.707 20.3299C140.307 20.6799 140.762 21.1499 141.072 21.7399L139.407 22.7149C139.257 22.4049 139.027 22.1599 138.717 21.9799C138.417 21.7999 138.077 21.7099 137.697 21.7099C137.117 21.7099 136.637 21.9049 136.257 22.2949C135.877 22.6749 135.687 23.1649 135.687 23.7649C135.687 24.3549 135.877 24.8449 136.257 25.2349C136.637 25.6149 137.117 25.8049 137.697 25.8049C138.087 25.8049 138.432 25.7199 138.732 25.5499C139.042 25.3699 139.272 25.1249 139.422 24.8149L141.102 25.7749C140.772 26.3649 140.307 26.8399 139.707 27.1999C139.107 27.5499 138.442 27.7249 137.712 27.7249ZM148.038 20.0149V27.5149H146.148V25.1749H145.473L143.748 27.5149H141.513L143.388 24.9499C142.908 24.7499 142.523 24.4349 142.233 24.0049C141.953 23.5649 141.813 23.0949 141.813 22.5949C141.813 21.8949 142.063 21.2899 142.563 20.7799C143.063 20.2699 143.718 20.0149 144.528 20.0149H148.038ZM144.678 21.7399C144.398 21.7399 144.163 21.8249 143.973 21.9949C143.793 22.1549 143.703 22.3749 143.703 22.6549C143.703 22.9249 143.793 23.1399 143.973 23.2999C144.163 23.4599 144.398 23.5399 144.678 23.5399H146.148V21.7399H144.678ZM150.161 23.9899L149.756 20.0149V17.0149H152.081V20.0149L151.691 23.9899H150.161ZM151.826 27.3349C151.576 27.5849 151.276 27.7099 150.926 27.7099C150.576 27.7099 150.276 27.5849 150.026 27.3349C149.776 27.0849 149.651 26.7849 149.651 26.4349C149.651 26.0849 149.776 25.7849 150.026 25.5349C150.276 25.2849 150.576 25.1599 150.926 25.1599C151.276 25.1599 151.576 25.2849 151.826 25.5349C152.076 25.7849 152.201 26.0849 152.201 26.4349C152.201 26.7849 152.076 27.0849 151.826 27.3349Z" fill="#9887EF"/>
</svg>
