<svg width="146" height="40" viewBox="0 0 146 40" fill="none" xmlns="http://www.w3.org/2000/svg">
<rect width="146" height="40" rx="9.62869" fill="#9887EF"/>
<path d="M48.2815 20.1205C49.9508 21.0822 50.7854 22.5337 50.7854 24.4751C50.7854 26.0899 50.2139 27.4145 49.0708 28.4487C47.9277 29.4829 46.5215 30 44.8523 30H36.7691V10.9486H44.2807C45.9137 10.9486 47.2836 11.4567 48.3904 12.4728C49.5153 13.4707 50.0778 14.7498 50.0778 16.3102C50.0778 17.8888 49.479 19.1589 48.2815 20.1205ZM44.2807 14.4595H40.5249V18.6508H44.2807C44.8613 18.6508 45.3422 18.4512 45.7232 18.0521C46.1224 17.6529 46.3219 17.1539 46.3219 16.5552C46.3219 15.9564 46.1314 15.4575 45.7504 15.0583C45.3694 14.6591 44.8795 14.4595 44.2807 14.4595ZM44.8523 26.4891C45.4873 26.4891 46.0135 26.2804 46.4308 25.8631C46.8481 25.4277 47.0568 24.8833 47.0568 24.2302C47.0568 23.5951 46.8481 23.0689 46.4308 22.6516C46.0135 22.2162 45.4873 21.9984 44.8523 21.9984H40.5249V26.4891H44.8523ZM64.8911 28.3126C63.494 29.6915 61.7884 30.381 59.7744 30.381C57.7604 30.381 56.0549 29.6915 54.6578 28.3126C53.2788 26.9155 52.5893 25.2099 52.5893 23.1959C52.5893 21.1819 53.2788 19.4855 54.6578 18.1065C56.0549 16.7094 57.7604 16.0109 59.7744 16.0109C61.7884 16.0109 63.494 16.7094 64.8911 18.1065C66.2882 19.4855 66.9867 21.1819 66.9867 23.1959C66.9867 25.2099 66.2882 26.9155 64.8911 28.3126ZM57.1344 25.8904C57.8421 26.598 58.7221 26.9518 59.7744 26.9518C60.8268 26.9518 61.7068 26.598 62.4144 25.8904C63.122 25.1827 63.4758 24.2846 63.4758 23.1959C63.4758 22.1073 63.122 21.2092 62.4144 20.5015C61.7068 19.7939 60.8268 19.4401 59.7744 19.4401C58.7221 19.4401 57.8421 19.7939 57.1344 20.5015C56.445 21.2092 56.1002 22.1073 56.1002 23.1959C56.1002 24.2846 56.445 25.1827 57.1344 25.8904ZM71.7428 14.6501V11.6018H79.6355V14.6501H71.7428ZM79.2816 16.3919H81.8944V30H78.4652V22.2706L72.0693 30H69.4566V16.3919H72.8858V24.1213L79.2816 16.3919ZM95.8344 16.3919V19.7667H91.5887V30H88.0778V19.7667H83.7776V16.3919H95.8344ZM107.534 16.3919H110.147V30H106.718V22.2706L100.322 30H97.7094V16.3919H101.139V24.1213L107.534 16.3919Z" fill="#F7F9F9"/>
</svg>
