<svg width="260" height="146" viewBox="0 0 260 146" fill="none" xmlns="http://www.w3.org/2000/svg">
<path d="M75.2926 116.844H66.7546V128.748C66.7546 130.554 67.4114 131.676 68.7249 132.114C70.0385 132.552 72.2277 132.689 75.2926 132.525V144.839C67.1377 145.824 61.391 145.085 58.0524 142.623C54.7686 140.105 53.1267 135.59 53.1267 129.077V116.844H46.9695V103.791H53.1267V96.4025L66.7546 92.2977V103.791H75.2926V116.844Z" fill="#F7F9F9"/>
<path d="M109.849 103.791H123.477V144.839H109.849V141.063C107.058 144.347 103.172 145.988 98.1916 145.988C92.7186 145.988 88.1212 143.936 84.3995 139.831C80.7325 135.672 78.8991 130.5 78.8991 124.315C78.8991 118.131 80.7325 112.986 84.3995 108.881C88.1212 104.722 92.7186 102.642 98.1916 102.642C103.172 102.642 107.058 104.284 109.849 107.568V103.791ZM94.9899 130.801C96.5771 132.443 98.6568 133.264 101.229 133.264C103.802 133.264 105.881 132.443 107.468 130.801C109.056 129.159 109.849 126.997 109.849 124.315C109.849 121.633 109.056 119.471 107.468 117.83C105.881 116.188 103.802 115.367 101.229 115.367C98.6568 115.367 96.5771 116.188 94.9899 117.83C93.4027 119.471 92.6091 121.633 92.6091 124.315C92.6091 126.997 93.4027 129.159 94.9899 130.801Z" fill="#F7F9F9"/>
<path d="M131.378 144.839V84.9091H145.006V144.839H131.378Z" fill="#F7F9F9"/>
<path d="M193.419 144.839H178.149L166.492 127.353V144.839H152.864V87.3719H166.492V120.949L177.082 103.791H192.844L179.052 124.315L193.419 144.839Z" fill="#F7F9F9"/>
<path d="M209.674 98.1265C208.141 99.659 206.308 100.425 204.173 100.425C202.039 100.425 200.178 99.659 198.591 98.1265C197.058 96.5393 196.292 94.6785 196.292 92.544C196.292 90.4095 197.058 88.576 198.591 87.0436C200.178 85.5111 202.039 84.7449 204.173 84.7449C206.308 84.7449 208.141 85.5111 209.674 87.0436C211.261 88.576 212.054 90.4095 212.054 92.544C212.054 94.6785 211.261 96.5393 209.674 98.1265ZM197.359 144.839V103.791H210.987V144.839H197.359Z" fill="#F7F9F9"/>
<path d="M230.915 129.323C232.283 132.662 235.348 134.331 240.11 134.331C243.065 134.331 245.556 133.373 247.581 131.458L257.432 138.354C253.382 143.444 247.499 145.988 239.782 145.988C232.831 145.988 227.248 143.963 223.034 139.913C218.874 135.809 216.795 130.637 216.795 124.397C216.795 118.213 218.847 113.041 222.952 108.881C227.057 104.722 232.283 102.642 238.632 102.642C244.762 102.642 249.825 104.694 253.82 108.799C257.815 112.904 259.813 118.048 259.813 124.233C259.813 126.039 259.621 127.736 259.238 129.323H230.915ZM230.751 119.882H246.513C245.419 116.051 242.846 114.135 238.796 114.135C234.582 114.135 231.9 116.051 230.751 119.882Z" fill="#F7F9F9"/>
<path d="M16.0908 60.0943L0 2.62707H15.8445L24.7109 38.8314L34.9729 2.62707H46.5484L56.8104 38.8314L65.7589 2.62707H81.5213L65.5126 60.0943H49.9965L40.8017 27.6664L31.607 60.0943H16.0908Z" fill="#F7F9F9"/>
<path d="M110.036 19.0463H123.664V60.0943H110.036V56.3179C107.245 59.6017 103.359 61.2436 98.3786 61.2436C92.9055 61.2436 88.3082 59.1912 84.5865 55.0864C80.9195 50.9269 79.086 45.7548 79.086 39.5703C79.086 33.3857 80.9195 28.241 84.5865 24.1362C88.3082 19.9767 92.9055 17.8969 98.3786 17.8969C103.359 17.8969 107.245 19.5389 110.036 22.8227V19.0463ZM95.1768 46.0559C96.764 47.6978 98.8438 48.5187 101.416 48.5187C103.988 48.5187 106.068 47.6978 107.655 46.0559C109.243 44.4139 110.036 42.2521 110.036 39.5703C110.036 36.8885 109.243 34.7266 107.655 33.0847C106.068 31.4428 103.988 30.6218 101.416 30.6218C98.8438 30.6218 96.764 31.4428 95.1768 33.0847C93.5897 34.7266 92.7961 36.8885 92.7961 39.5703C92.7961 42.2521 93.5897 44.4139 95.1768 46.0559Z" fill="#F7F9F9"/>
<path d="M131.565 60.0943V0.164195H145.193V60.0943H131.565Z" fill="#F7F9F9"/>
<path d="M193.606 60.0943H178.336L166.679 42.6078V60.0943H153.051V2.62707H166.679V36.2043L177.269 19.0463H193.031L179.239 39.5703L193.606 60.0943Z" fill="#F7F9F9"/>
<path d="M209.86 13.3817C208.328 14.9141 206.495 15.6803 204.36 15.6803C202.226 15.6803 200.365 14.9141 198.778 13.3817C197.245 11.7945 196.479 9.93362 196.479 7.79912C196.479 5.66462 197.245 3.83115 198.778 2.29869C200.365 0.766229 202.226 0 204.36 0C206.495 0 208.328 0.766229 209.86 2.29869C211.448 3.83115 212.241 5.66462 212.241 7.79912C212.241 9.93362 211.448 11.7945 209.86 13.3817ZM197.546 60.0943V19.0463H211.174V60.0943H197.546Z" fill="#F7F9F9"/>
<path d="M231.102 44.5781C232.47 47.9167 235.535 49.586 240.297 49.586C243.252 49.586 245.743 48.6282 247.768 46.7126L257.619 53.6087C253.569 58.6987 247.686 61.2436 239.969 61.2436C233.018 61.2436 227.435 59.2186 223.221 55.1685C219.061 51.0637 216.982 45.8917 216.982 39.6524C216.982 33.4678 219.034 28.2958 223.139 24.1362C227.244 19.9767 232.47 17.8969 238.819 17.8969C244.949 17.8969 250.012 19.9493 254.007 24.0541C258.002 28.1589 260 33.3036 260 39.4882C260 41.2943 259.808 42.9909 259.425 44.5781H231.102ZM230.938 35.1371H246.7C245.606 31.3059 243.033 29.3904 238.983 29.3904C234.769 29.3904 232.087 31.3059 230.938 35.1371Z" fill="#F7F9F9"/>
<path d="M38.1548 75.9781C38.1548 80.7533 35.1691 84.7634 30.7627 85.9348C29.9154 86.1601 29.0252 86.2801 28.107 86.2801C26.4491 86.2801 24.8826 85.8887 23.4948 85.1933C20.1169 83.5007 17.5371 80.0136 17.5371 75.9781C17.5371 70.2846 22.1525 65.6692 27.846 65.6692C33.5394 65.6692 38.1548 70.2846 38.1548 75.9781Z" fill="#9887EF"/>
<path d="M25.4267 121.898L21.7807 121.753C21.1328 121.727 20.521 121.584 19.963 121.347L18.8264 128.366C18.7916 128.645 18.7341 128.921 18.6543 129.19L15.1481 141.044C14.66 142.694 15.6972 144.406 17.3857 144.738C18.8714 145.03 20.3338 144.138 20.7543 142.683L23.7184 132.429C23.7897 132.182 23.8425 131.931 23.8763 131.676L25.4267 121.898Z" fill="#9887EF"/>
<path d="M30.2975 122.108L25.4267 121.898L29.691 142.558C30.0141 144.09 31.508 145.078 33.0445 144.776C34.63 144.465 35.6439 142.904 35.2838 141.329L30.8245 122.105L30.5631 122.112C30.4751 122.113 30.3866 122.112 30.2975 122.108Z" fill="#9887EF"/>
<path d="M39.6778 93.1022C38.851 93.6563 37.895 93.9872 36.9026 94.0628L32.0719 94.4309L31.148 94.5013C30.9456 94.5167 31.0114 94.5449 30.8245 94.5973L31.7709 100.436C31.801 100.434 31.5701 100.439 31.6003 100.437L33.0279 100.328L38.1673 99.9364C39.4432 99.8392 40.6724 99.4137 41.7354 98.7013L47.0678 95.1278C48.1168 94.4249 48.5899 93.1238 48.2376 91.9113C47.6903 90.0281 45.4699 89.2206 43.8408 90.3124L39.6778 93.1022Z" fill="#9887EF"/>
<path d="M21.9889 87.7234L16.0502 115.589C15.5828 117.921 17.6433 120.152 19.5988 121.174C19.7174 121.236 19.8389 121.294 19.963 121.347C20.521 121.584 21.1328 121.727 21.7807 121.753L25.4267 121.898L29.691 142.558C30.0141 144.09 31.508 145.078 33.0445 144.776C34.63 144.465 35.6439 142.904 35.2838 141.329L30.8245 122.105C33.9528 122.072 36.3582 119.255 35.851 116.126L31.7709 100.436L30.8245 94.5973L31.156 87.1633C31.085 86.7252 30.9502 86.313 30.7627 85.9348C29.9154 86.1601 29.0252 86.2801 28.107 86.2801C26.4491 86.2801 24.8826 85.8887 23.4948 85.1933C23.0881 85.7128 22.1245 87.047 21.9889 87.7234Z" fill="#9887EF"/>
<path d="M33.0279 100.328L31.6003 100.437C31.5701 100.439 31.801 100.434 31.7709 100.436L35.851 116.126L33.0279 100.328Z" fill="#9887EF"/>
<path d="M31.148 94.5013L32.0719 94.4309L31.156 87.1633L30.8245 94.5973C31.0114 94.5449 30.9456 94.5167 31.148 94.5013Z" fill="#9887EF"/>
<path d="M48.0533 86.4929H45.2016C44.5122 86.4929 43.8685 86.8374 43.4861 87.411L40.4622 91.9469C39.5487 93.3171 40.5309 95.1524 42.1777 95.1524H45.1374C45.8389 95.1524 46.4924 94.7956 46.8717 94.2055L49.7877 89.6696C50.6697 88.2975 49.6845 86.4929 48.0533 86.4929Z" fill="#A465E3"/>
<path d="M23.2742 100.969L23.6583 108.353C23.7226 109.588 24.7429 110.557 25.9798 110.557C27.3112 110.557 28.3705 109.441 28.3014 108.111L27.9298 100.969L28.3014 93.8275C28.3705 92.498 27.3112 91.3821 25.9798 91.3821C24.7429 91.3821 23.7226 92.3507 23.6583 93.586L23.2742 100.969Z" stroke="#A465E3" stroke-width="0.359883"/>
</svg>
