<svg width="32" height="39" viewBox="0 0 32 39" fill="none" xmlns="http://www.w3.org/2000/svg">
<path d="M13.8825 36C13.8825 37.1694 14.8306 38.1175 16 38.1175C17.1694 38.1175 18.1175 37.1694 18.1175 36L13.8825 36ZM17.4973 1.50272C16.6704 0.675797 15.3296 0.675797 14.5027 1.50272L1.0272 14.9782C0.200274 15.8052 0.200274 17.1459 1.0272 17.9728C1.85412 18.7997 3.19483 18.7997 4.02176 17.9728L16 5.99456L27.9782 17.9728C28.8052 18.7997 30.1459 18.7997 30.9728 17.9728C31.7997 17.1459 31.7997 15.8052 30.9728 14.9782L17.4973 1.50272ZM18.1175 36L18.1175 3L13.8825 3L13.8825 36L18.1175 36Z" fill="#F7F9F9"/>
</svg>
