<svg width="276" height="80" viewBox="0 0 276 80" fill="none" xmlns="http://www.w3.org/2000/svg">
<path d="M36.7881 41.9319H25.7593V57.3086C25.7593 59.6417 26.6077 61.091 28.3044 61.6565C30.0012 62.2221 32.8291 62.3989 36.7881 62.1868V78.0937C26.2542 79.3662 18.831 78.4118 14.5184 75.2304C10.2766 71.9784 8.15567 66.1458 8.15567 57.7328V41.9319H0.202209V25.0706H8.15567V15.5265L25.7593 10.2241V25.0706H36.7881V41.9319Z" fill="#F7F9F9"/>
<path d="M81.4261 25.0706H99.0298V78.0937H81.4261V73.2156C77.8205 77.4574 72.801 79.5783 66.3676 79.5783C59.2978 79.5783 53.3592 76.9272 48.5518 71.6249C43.8151 66.2519 41.4467 59.571 41.4467 51.5822C41.4467 43.5933 43.8151 36.9478 48.5518 31.6455C53.3592 26.2725 59.2978 23.586 66.3676 23.586C72.801 23.586 77.8205 25.7069 81.4261 29.9487V25.0706ZM62.2318 59.9598C64.282 62.0807 66.9685 63.1412 70.2913 63.1412C73.6141 63.1412 76.3006 62.0807 78.3508 59.9598C80.401 57.8389 81.4261 55.0463 81.4261 51.5822C81.4261 48.118 80.401 45.3254 78.3508 43.2045C76.3006 41.0836 73.6141 40.0231 70.2913 40.0231C66.9685 40.0231 64.282 41.0836 62.2318 43.2045C60.1815 45.3254 59.1564 48.118 59.1564 51.5822C59.1564 55.0463 60.1815 57.8389 62.2318 59.9598Z" fill="#F7F9F9"/>
<path d="M109.235 78.0937V0.679991H126.839V78.0937H109.235Z" fill="#F7F9F9"/>
<path d="M189.376 78.0937H169.652L154.593 55.5059V78.0937H136.989V3.86137H154.593V47.2343L168.273 25.0706H188.634L170.818 51.5822L189.376 78.0937Z" fill="#F7F9F9"/>
<path d="M210.372 17.7534C208.393 19.733 206.025 20.7227 203.267 20.7227C200.51 20.7227 198.106 19.733 196.056 17.7534C194.077 15.7032 193.087 13.2995 193.087 10.5423C193.087 7.78508 194.077 5.41672 196.056 3.43719C198.106 1.45766 200.51 0.467896 203.267 0.467896C206.025 0.467896 208.393 1.45766 210.372 3.43719C212.423 5.41672 213.448 7.78508 213.448 10.5423C213.448 13.2995 212.423 15.7032 210.372 17.7534ZM194.466 78.0937V25.0706H212.069V78.0937H194.466Z" fill="#F7F9F9"/>
<path d="M237.811 58.051C239.579 62.3635 243.538 64.5198 249.688 64.5198C253.506 64.5198 256.723 63.2826 259.338 60.8082L272.064 69.716C266.832 76.2909 259.232 79.5783 249.264 79.5783C240.285 79.5783 233.074 76.9625 227.631 71.7309C222.258 66.4286 219.571 59.7477 219.571 51.6882C219.571 43.6994 222.222 37.0185 227.525 31.6455C232.827 26.2725 239.579 23.586 247.779 23.586C255.698 23.586 262.237 26.2371 267.398 31.5394C272.559 36.8417 275.139 43.4873 275.139 51.4761C275.139 53.8091 274.892 56.0007 274.397 58.051H237.811ZM237.599 45.8557H257.96C256.546 40.9068 253.223 38.4324 247.992 38.4324C242.548 38.4324 239.084 40.9068 237.599 45.8557Z" fill="#F7F9F9"/>
</svg>
