<svg width="33" height="33" viewBox="0 0 33 33" fill="none" xmlns="http://www.w3.org/2000/svg">
<path d="M13.6015 19.3922L30.53 2.46989M14.0827 20.1532L17.9212 27.8304C18.8489 29.6856 19.3127 30.6133 19.897 30.862C20.4041 31.0779 20.9838 31.0387 21.4574 30.7568C22.003 30.4319 22.3381 29.4504 23.0084 27.4874L30.2611 6.24715C30.8452 4.53678 31.1371 3.68159 30.9373 3.11586C30.7634 2.62371 30.3763 2.23658 29.8842 2.0627C29.3184 1.86283 28.4633 2.15485 26.7528 2.73887L5.51253 9.99166C3.54958 10.6619 2.56809 10.9971 2.24319 11.5427C1.96122 12.0162 1.92215 12.5959 2.13802 13.1029C2.38677 13.6872 3.3144 14.1511 5.16966 15.0786L12.8468 18.9173C13.1526 19.0702 13.3055 19.1465 13.4378 19.2486C13.5554 19.3393 13.6607 19.4447 13.7513 19.5621C13.8535 19.6946 13.9298 19.8474 14.0827 20.1532Z" stroke="white" stroke-width="3" stroke-linecap="round" stroke-linejoin="round"/>
</svg>
