<svg width="337" height="80" viewBox="0 0 337 80" fill="none" xmlns="http://www.w3.org/2000/svg">
<path d="M21.3153 77.6258L0.530273 3.39348H20.9972L32.4502 50.1598L45.7059 3.39348H60.6585L73.9142 50.1598L85.4733 3.39348H105.834L85.1551 77.6258H65.1124L53.2352 35.7376L41.358 77.6258H21.3153Z" fill="#F7F9F9"/>
<path d="M142.668 24.6027H160.271V77.6258H142.668V72.7477C139.062 76.9895 134.043 79.1104 127.609 79.1104C120.539 79.1104 114.601 76.4593 109.793 71.157C105.057 65.784 102.688 59.1031 102.688 51.1143C102.688 43.1254 105.057 36.4799 109.793 31.1776C114.601 25.8046 120.539 23.1181 127.609 23.1181C134.043 23.1181 139.062 25.239 142.668 29.4808V24.6027ZM123.473 59.4919C125.524 61.6128 128.21 62.6733 131.533 62.6733C134.856 62.6733 137.542 61.6128 139.592 59.4919C141.643 57.371 142.668 54.5784 142.668 51.1143C142.668 47.6501 141.643 44.8575 139.592 42.7366C137.542 40.6157 134.856 39.5552 131.533 39.5552C128.21 39.5552 125.524 40.6157 123.473 42.7366C121.423 44.8575 120.398 47.6501 120.398 51.1143C120.398 54.5784 121.423 57.371 123.473 59.4919Z" fill="#F7F9F9"/>
<path d="M170.477 77.6258V0.212096H188.08V77.6258H170.477Z" fill="#F7F9F9"/>
<path d="M250.618 77.6258H230.893L215.835 55.038V77.6258H198.231V3.39348H215.835V46.7664L229.515 24.6027H249.875L232.06 51.1143L250.618 77.6258Z" fill="#F7F9F9"/>
<path d="M271.614 17.2855C269.635 19.2651 267.266 20.2548 264.509 20.2548C261.752 20.2548 259.348 19.2651 257.298 17.2855C255.318 15.2353 254.329 12.8316 254.329 10.0744C254.329 7.31719 255.318 4.94882 257.298 2.96929C259.348 0.989764 261.752 0 264.509 0C267.266 0 269.635 0.989764 271.614 2.96929C273.664 4.94882 274.689 7.31719 274.689 10.0744C274.689 12.8316 273.664 15.2353 271.614 17.2855ZM255.707 77.6258V24.6027H273.311V77.6258H255.707Z" fill="#F7F9F9"/>
<path d="M299.053 57.5831C300.82 61.8956 304.779 64.0519 310.93 64.0519C314.748 64.0519 317.964 62.8147 320.58 60.3403L333.306 69.2482C328.074 75.823 320.474 79.1104 310.506 79.1104C301.527 79.1104 294.316 76.4946 288.872 71.263C283.499 65.9607 280.813 59.2798 280.813 51.2203C280.813 43.2315 283.464 36.5506 288.766 31.1776C294.069 25.8046 300.82 23.1181 309.021 23.1181C316.939 23.1181 323.479 25.7692 328.64 31.0715C333.801 36.3738 336.381 43.0194 336.381 51.0082C336.381 53.3412 336.134 55.5328 335.639 57.5831H299.053ZM298.841 45.3878H319.202C317.788 40.4389 314.465 37.9645 309.233 37.9645C303.789 37.9645 300.325 40.4389 298.841 45.3878Z" fill="#F7F9F9"/>
</svg>
